{"title":"Gallowwalkers 2012 BRRip XViD-PLAYNOW","uid":8733744,"size":718292271,"categoryP":"video","categoryS":"movies","magnet":"?xt=urn:btih:cb7e40ff5b40c31dcc239680d72571f961ca2bcf&amp;dn=Gallowwalkers+2012+BRRip+XViD-PLAYNOW&amp;tr=udp%3A%2F%2Ftracker.openbittorrent.com%3A80&amp;tr=udp%3A%2F%2Fopen.demonii.com%3A1337&amp;tr=udp%3A%2F%2Ftracker.coppersurfer.tk%3A6969&amp;tr=udp%3A%2F%2Fexodus.desync.com%3A6969","seeders":0,"leechers":1,"uploader":"ValidusVyto","files":-1,"time":1374647801,"description":"_______ Visit us at our Semi Public Bittorrent Community ________\n   &lt;a href=&quot;\nhttp://p2pdl.com&quot; rel=&quot;nofollow&quot; target=&quot;_NEW&quot;&gt;\nhttp://p2pdl.com&lt;/a&gt;  _____________________________ &lt;a href=&quot; http://p2pdl.com&quot; rel=&quot;nofollow&quot; target=&quot;_NEW&quot;&gt; http://p2pdl.com&lt;/a&gt;\n\n\n\nA cursed gunman (Snipes) whose victims come back from the dead recruits a young warrior to help in the fight against a gang of zombies.\n &lt;a href=&quot;\nhttp://www.imdb.com/title/tt0829176/&quot; rel=&quot;nofollow&quot; target=&quot;_NEW&quot;&gt;\nhttp://www.imdb.com/title/tt0829176/&lt;/a&gt;\n\nGeneral\nFormat                                   : AVI\nFormat/Info                              : Audio Video Interleave\nFile size                                : 685 MiB\nDuration                                 : 1h 32mn\nOverall bit rate                         : 1 038 Kbps\nWriting library                          : VirtualDub build 32842/release\n\nVideo\nCodec ID/Hint                            : XviD\nDuration                                 : 1h 32mn\nBit rate                                 : 900 Kbps\nWidth                                    : 640 pixels\nHeight                                   : 272 pixels\nDisplay aspect ratio                     : 2.35:1\nFrame rate                               : 23.976 fps\nScan type                                : Progressive\nCompression mode                         : Lossy\nBits/(Pixel*Frame)                       : 0.216\nStream size                              : 594 MiB (87%)\nWriting library                          : XviD 64\n\nAudio\nCodec ID/Hint                            : MP3\nDuration                                 : 1h 32mn\nBit rate mode                            : Constant\nBit rate                                 : 128 Kbps\nChannel(s)                               : 2 channels\nSampling rate                            : 48.0 KHz\nCompression mode                         : Lossy\nStream size                              : 84.5 MiB (12%)\n &lt;a href=&quot;\nhttp://ultraimg.com/images/ZFTfA.png&quot; rel=&quot;nofollow&quot; target=&quot;_NEW&quot;&gt;\nhttp://ultraimg.com/images/ZFTfA.png&lt;/a&gt; &lt;a href=&quot;\nhttp://ultraimg.com/images/u0lS.png&quot; rel=&quot;nofollow&quot; target=&quot;_NEW&quot;&gt;\nhttp://ultraimg.com/images/u0lS.png&lt;/a&gt; &lt;a href=&quot;\nhttp://ultraimg.com/images/Fhu4C.png&quot; rel=&quot;nofollow&quot; target=&quot;_NEW&quot;&gt;\nhttp://ultraimg.com/images/Fhu4C.png&lt;/a&gt; &lt;a href=&quot;\nhttp://ultraimg.com/images/drhQ2.png&quot; rel=&quot;nofollow&quot; target=&quot;_NEW&quot;&gt;\nhttp://ultraimg.com/images/drhQ2.png&lt;/a&gt; &lt;a href=&quot;\nhttp://ultraimg.com/images/HlFfc.png&quot; rel=&quot;nofollow&quot; target=&quot;_NEW&quot;&gt;\nhttp://ultraimg.com/images/HlFfc.png&lt;/a&gt; &lt;a href=&quot;\nhttp://ultraimg.com/images/U0Pn1.png&quot; rel=&quot;nofollow&quot; target=&quot;_NEW&quot;&gt;\nhttp://ultraimg.com/images/U0Pn1.png&lt;/a&gt;\n","torrent":{"xt":"urn:btih:cb7e40ff5b40c31dcc239680d72571f961ca2bcf","amp;dn":"Gallowwalkers+2012+BRRip+XViD-PLAYNOW","amp;tr":["udp%3A%2F%2Ftracker.openbittorrent.com%3A80","udp%3A%2F%2Fopen.demonii.com%3A1337","udp%3A%2F%2Ftracker.coppersurfer.tk%3A6969","udp%3A%2F%2Fexodus.desync.com%3A6969"],"infoHash":"cb7e40ff5b40c31dcc239680d72571f961ca2bcf","infoHashBuffer":{"type":"Buffer","data":[203,126,64,255,91,64,195,29,204,35,150,128,215,37,113,249,97,202,43,207]},"announce":[],"urlList":[]}}